HIERARCHY
ROOT root
{
	OFFSET 0.000000 0.000000 0.000000
	CHANNELS 6 Xposition Yposition Zposition Zrotation Yrotation Xrotation
	JOINT lhip
	{
		OFFSET 0.058581 -0.082280 -0.017664
		CHANNELS 3 Zrotation Yrotation Xrotation
		JOINT lknee
		{
			OFFSET 0.043451 -0.386469 0.008037
			CHANNELS 3 Zrotation Yrotation Xrotation
			JOINT lankle
			{
				OFFSET -0.014790 -0.426874 -0.037428
				CHANNELS 3 Zrotation Yrotation Xrotation
				JOINT ltoe
				{
					OFFSET 0.041054 -0.060286 0.122042
					CHANNELS 3 Zrotation Yrotation Xrotation
					End Site
					{
						OFFSET 0.000000 0.000000 0.000000
					}
				}
			}
		}
	}
	JOINT rhip
	{
		OFFSET -0.060310 -0.090513 -0.013543
		CHANNELS 3 Zrotation Yrotation Xrotation
		JOINT rknee
		{
			OFFSET -0.043257 -0.383688 -0.004843
			CHANNELS 3 Zrotation Yrotation Xrotation
			JOINT rankle
			{
				OFFSET 0.019056 -0.420046 -0.034562
				CHANNELS 3 Zrotation Yrotation Xrotation
				JOINT rtoe
				{
					OFFSET -0.034840 -0.062106 0.130323
					CHANNELS 3 Zrotation Yrotation Xrotation
					End Site
					{
						OFFSET 0.000000 0.000000 0.000000
					}
				}
			}
		}
	}
	JOINT lowerback
	{
		OFFSET 0.004439 0.124404 -0.038385
		CHANNELS 3 Zrotation Yrotation Xrotation
		JOINT upperback
		{
			OFFSET 0.004488 0.137956 0.026820
			CHANNELS 3 Zrotation Yrotation Xrotation
			JOINT chest
			{
				OFFSET -0.002265 0.056032 0.002855
				CHANNELS 3 Zrotation Yrotation Xrotation
				JOINT lowerneck
				{
					OFFSET -0.013390 0.211636 -0.033468
					CHANNELS 3 Zrotation Yrotation Xrotation
					JOINT upperneck
					{
						OFFSET 0.010113 0.088937 0.050410
						CHANNELS 3 Zrotation Yrotation Xrotation
						End Site
						{
							OFFSET 0.000000 0.000000 0.000000
						}
					}
				}
				JOINT lclavicle
				{
					OFFSET 0.071702 0.114000 -0.018898
					CHANNELS 3 Zrotation Yrotation Xrotation
					JOINT lshoulder
					{
						OFFSET 0.122921 0.045205 -0.019046
						CHANNELS 3 Zrotation Yrotation Xrotation
						JOINT lelbow
						{
							OFFSET 0.255332 -0.015649 -0.022946
							CHANNELS 3 Zrotation Yrotation Xrotation
							JOINT lwrist
							{
								OFFSET 0.265709 0.012698 -0.007375
								CHANNELS 3 Zrotation Yrotation Xrotation
								End Site
								{
									OFFSET 0.000000 0.000000 0.000000
								}
							}
						}
					}
				}
				JOINT rclavicle
				{
					OFFSET -0.082954 0.112472 -0.023707
					CHANNELS 3 Zrotation Yrotation Xrotation
					JOINT rshoulder
					{
						OFFSET -0.113228 0.046853 -0.008472
						CHANNELS 3 Zrotation Yrotation Xrotation
						JOINT relbow
						{
							OFFSET -0.260127 -0.014369 -0.031269
							CHANNELS 3 Zrotation Yrotation Xrotation
							JOINT rwrist
							{
								OFFSET -0.269108 0.006794 -0.006027
								CHANNELS 3 Zrotation Yrotation Xrotation
								End Site
								{
									OFFSET 0.000000 0.000000 0.000000
								}
							}
						}
					}
				}
			}
		}
	}
}
MOTION
Frames: 7
Frame Time: 0.033333
0.991647 1.169583 1.009922 81.437270 -3.327381 86.717094 3.620483 1.249767 -11.333000 -2.754535 -2.982208 -4.162884 -4.433788 8.052099 -3.532257 0.000000 -0.000000 0.000000 -1.317065 1.627804 7.536897 5.426347 11.884234 20.505956 1.480756 1.560189 -9.302614 0.000000 -0.000000 0.000000 -2.547058 3.628667 4.925206 2.754407 -2.710360 6.828802 -0.353156 -0.508123 1.989913 6.900979 -30.080547 -3.412566 10.384948 -33.308745 -14.513164 -23.232967 16.772746 5.517679 -56.964057 16.221588 9.453367 5.578269 -37.691303 21.279275 3.486837 -3.291403 -3.584104 19.902093 -1.405834 -0.309341 57.819363 2.524209 17.938054 7.131792 65.326898 22.875280 -7.530612 7.785627 -18.042872 
1.029282 1.172250 1.003487 79.260483 -3.372680 86.198745 3.748904 0.148294 -11.228772 -3.267408 -3.534549 -0.816644 -4.345821 8.303629 -3.575365 0.000000 -0.000000 0.000000 -2.299374 1.658540 8.859958 6.046217 12.794239 23.840001 2.856934 1.787635 -9.108486 0.000000 -0.000000 0.000000 -2.683562 3.884472 4.554340 2.744719 -2.967699 7.101400 -0.700525 -0.525834 1.911907 6.828076 -30.009806 -3.566674 9.924402 -33.271986 -14.422841 -23.331239 16.766435 5.590436 -56.490728 16.795993 9.671574 4.910479 -37.446114 22.262400 2.781985 -3.400473 -3.888607 20.166967 -1.341038 -0.084726 57.930606 1.567880 18.288104 6.877878 66.016925 22.829666 -7.596352 7.897428 -17.668793 
1.065906 1.174945 0.994928 77.210690 -3.649343 85.836240 3.757102 -0.818307 -11.597870 -4.066132 -2.976400 4.388412 -5.989735 8.166076 1.890199 0.000000 -0.000000 0.000000 -3.386036 1.564153 8.068247 6.774294 11.985157 30.394834 2.946854 2.149926 -8.079028 0.000000 -0.000000 0.000000 -3.323631 4.253786 4.004441 2.951031 -3.149067 7.530069 -0.877883 -0.546825 1.740520 6.217254 -30.471942 -2.912454 10.657622 -33.165589 -15.270711 -23.647946 15.983835 5.526028 -55.958811 16.517062 10.347292 4.754989 -37.082009 22.171418 4.051558 -3.123593 -3.642608 20.630418 -1.468627 0.311292 58.038376 0.688558 18.226778 5.488984 65.722265 21.622957 -7.802760 7.137918 -16.897566 
1.100998 1.176927 0.986806 74.976904 -4.584730 85.231562 3.629770 -0.130095 -12.826120 -6.278180 -1.796662 12.096793 -3.991722 8.847852 0.425949 0.000000 -0.000000 0.000000 -5.629053 0.815393 5.161041 7.092694 8.654666 40.033625 3.464232 2.316003 -3.567113 0.000000 -0.000000 0.000000 -5.010999 4.352516 4.642331 3.070800 -2.868013 6.842651 -0.789999 -0.582005 1.960363 6.334821 -30.596400 -3.198048 10.084552 -32.678549 -14.343257 -24.120797 15.385171 5.153058 -55.148525 15.268335 10.361217 4.718265 -36.754525 22.575165 4.749093 -3.296860 -2.504399 21.532102 -1.735437 0.322506 57.956983 0.524419 18.322707 4.114379 62.863804 20.361628 -6.395901 7.344679 -15.236677 
1.133537 1.178162 0.982345 72.945270 -5.799770 83.905502 2.893271 -0.410287 -11.769287 -8.233423 -0.441491 17.349704 -1.307860 9.866486 -3.136618 0.000000 -0.000000 0.000000 -7.844575 0.211673 1.677204 6.120372 4.918815 50.537111 4.509284 1.164702 4.030297 0.000000 -0.000000 0.000000 -6.739467 4.115477 6.286488 2.988504 -2.777748 6.513128 -0.803216 -0.485313 1.945550 5.802092 -31.089682 -2.609468 10.755460 -31.851478 -14.941743 -24.341253 13.420926 5.310774 -54.578328 13.239970 10.537502 4.978991 -36.273395 22.588637 4.782686 -3.857575 -2.945544 22.433623 -0.756084 0.595775 58.841880 0.382429 18.093297 -0.248227 58.562016 16.115831 -4.752487 7.394274 -11.763940 
1.164443 1.178014 0.980581 69.971813 -6.111811 83.035970 2.399198 1.612100 -9.149805 -8.635241 -0.252759 19.339529 0.543169 10.434050 -6.602369 0.000000 -0.000000 0.000000 -8.641826 -1.554166 -2.984568 3.553740 2.988540 60.499832 3.591848 -2.531096 9.121694 0.000000 -0.000000 0.000000 -6.789526 3.589589 7.268524 2.528205 -1.881710 6.544023 -1.122772 -0.365702 1.821193 5.647515 -31.581970 -2.823981 10.148876 -30.248641 -13.872459 -25.017652 11.724975 5.351876 -53.946666 10.559096 9.158617 6.054836 -36.912676 20.800374 7.110879 -3.990753 -2.343220 23.023476 0.242488 1.359583 59.480372 -0.058119 17.414734 -3.213158 54.345474 14.237324 -3.688028 7.080728 -8.441552 
1.192196 1.175995 0.983307 67.767380 -6.123888 82.357317 2.200215 2.576366 -6.142269 -8.574527 0.081249 19.553453 0.868159 11.238139 -8.672744 0.000000 -0.000000 0.000000 -8.372108 -2.659791 -7.021743 -0.741297 0.165868 66.959029 1.403095 -8.628011 9.275169 0.000000 -0.000000 0.000000 -6.777655 2.590350 7.859664 2.195599 -1.331993 6.763250 -1.150437 -0.578915 2.091201 4.896262 -31.457948 -2.379851 10.425231 -28.741023 -14.044280 -25.714809 9.972946 5.122227 -53.565185 7.308400 8.280058 7.691504 -37.165494 16.991575 10.589604 -3.045345 -3.530633 23.417055 1.280017 1.175380 59.835236 -0.822406 17.484646 -4.734127 51.225791 12.342087 -3.304866 5.798135 -6.681092 
